<svg width="307" height="214" viewBox="0 0 307 214" fill="none" xmlns="http://www.w3.org/2000/svg">
<path d="M248.149 0H64.9574C56.5263 0 49.6915 6.8348 49.6915 15.266V198.457C49.6915 206.889 56.5263 213.723 64.9574 213.723H248.149C256.58 213.723 263.415 206.889 263.415 198.457V15.266C263.415 6.8348 256.58 0 248.149 0Z" fill="#CCDAFF"/>
<g filter="url(#filter0_d_289_775)">
<path d="M223.723 15.266H17.633C13.4174 15.266 10 18.6834 10 22.899V61.0639C10 65.2794 13.4174 68.6968 17.633 68.6968H223.723C227.939 68.6968 231.356 65.2794 231.356 61.0639V22.899C231.356 18.6834 227.939 15.266 223.723 15.266Z" fill="white"/>
</g>
<path d="M115.335 27.4788H75.6436C73.1143 27.4788 71.0638 29.5292 71.0638 32.0585C71.0638 34.5879 73.1143 36.6383 75.6436 36.6383H115.335C117.864 36.6383 119.915 34.5879 119.915 32.0585C119.915 29.5292 117.864 27.4788 115.335 27.4788Z" fill="#CDE1FF"/>
<path d="M142.814 47.3245H75.6436C73.1143 47.3245 71.0638 49.3749 71.0638 51.9043C71.0638 54.4336 73.1143 56.484 75.6436 56.484H142.814C145.343 56.484 147.394 54.4336 147.394 51.9043C147.394 49.3749 145.343 47.3245 142.814 47.3245Z" fill="#CCDAFF"/>
<path d="M51.2181 19.8457H22.2128C17.9972 19.8457 14.5798 23.2631 14.5798 27.4787V56.484C14.5798 60.6996 17.9972 64.117 22.2128 64.117H51.2181C55.4337 64.117 58.8511 60.6996 58.8511 56.484V27.4787C58.8511 23.2631 55.4337 19.8457 51.2181 19.8457Z" fill="#1751D0"/>
<path d="M33.2379 46.9886H36.291L36.3246 45.8131C36.3246 44.2682 37.2986 43.8652 38.6756 43.4286C40.0569 43.0356 41.2727 42.2037 42.1391 41.0585C43.0056 39.9133 43.4757 38.5171 43.4783 37.081C43.5085 36.2042 43.3564 35.3307 43.0316 34.5157C42.7068 33.7007 42.2163 32.9621 41.5912 32.3464C40.9661 31.7308 40.2201 31.2517 39.4002 30.9394C38.5804 30.627 37.7046 30.4883 36.8284 30.5319C35.9024 30.5117 34.9819 30.6798 34.1228 31.0261C33.2638 31.3723 32.4839 31.8894 31.8307 32.5461C31.1775 33.2027 30.6644 33.9852 30.3227 34.8461C29.981 35.707 29.8177 36.6283 29.8427 37.5542H32.9997C32.9877 37.043 33.0779 36.5345 33.265 36.0586C33.452 35.5827 33.7322 35.1489 34.089 34.7826C34.4459 34.4164 34.8723 34.125 35.3432 33.9257C35.8141 33.7263 36.3201 33.623 36.8315 33.6217C37.2926 33.595 37.7541 33.6678 38.1846 33.8353C38.6151 34.0028 39.0045 34.261 39.3263 34.5924C39.6481 34.9238 39.8948 35.3206 40.0496 35.7558C40.2045 36.191 40.2638 36.6544 40.2236 37.1146C40.2032 37.8594 39.9442 38.578 39.4847 39.1645C39.0252 39.751 38.3894 40.1744 37.6711 40.3723L36.5628 40.812C35.4777 41.0734 34.5304 41.7328 33.9084 42.6596C33.2864 43.5864 33.0351 44.7129 33.2043 45.8162L33.2379 46.9886ZM34.7492 54.246C35.0482 54.2566 35.3462 54.2072 35.6258 54.1007C35.9053 53.9941 36.1606 53.8326 36.3767 53.6256C36.5927 53.4187 36.7651 53.1706 36.8836 52.8959C37.0021 52.6212 37.0643 52.3255 37.0666 52.0264C37.0639 51.7275 37.0014 51.4321 36.8827 51.1578C36.764 50.8835 36.5916 50.6357 36.3756 50.4291C36.1596 50.2224 35.9044 50.0612 35.6251 49.9548C35.3457 49.8485 35.0479 49.7991 34.7492 49.8097C34.4505 49.7991 34.1527 49.8485 33.8733 49.9548C33.594 50.0612 33.3388 50.2224 33.1228 50.4291C32.9068 50.6357 32.7343 50.8835 32.6157 51.1578C32.497 51.4321 32.4345 51.7275 32.4318 52.0264C32.4341 52.3255 32.4963 52.6212 32.6148 52.8959C32.7333 53.1706 32.9056 53.4187 33.1217 53.6256C33.3377 53.8326 33.5931 53.9941 33.8726 54.1007C34.1521 54.2072 34.4502 54.2566 34.7492 54.246Z" fill="white"/>
<g filter="url(#filter1_d_289_775)">
<path d="M83.2766 80.9095H289.367C291.391 80.9095 293.333 81.7137 294.764 83.1452C296.196 84.5767 297 86.5181 297 88.5425V126.707C297 128.732 296.196 130.673 294.764 132.105C293.333 133.536 291.391 134.34 289.367 134.34H83.2766C81.2522 134.34 79.3107 133.536 77.8793 132.105C76.4478 130.673 75.6436 128.732 75.6436 126.707V88.5425C75.6436 86.5181 76.4478 84.5767 77.8793 83.1452C79.3107 81.7137 81.2522 80.9095 83.2766 80.9095V80.9095Z" fill="white"/>
</g>
<path d="M180.979 93.1223H141.287C138.758 93.1223 136.707 95.1728 136.707 97.7021C136.707 100.231 138.758 102.282 141.287 102.282H180.979C183.508 102.282 185.559 100.231 185.559 97.7021C185.559 95.1728 183.508 93.1223 180.979 93.1223Z" fill="#CDE1FF"/>
<path d="M208.457 112.968H141.287C138.758 112.968 136.707 115.018 136.707 117.548C136.707 120.077 138.758 122.128 141.287 122.128H208.457C210.987 122.128 213.037 120.077 213.037 117.548C213.037 115.018 210.987 112.968 208.457 112.968Z" fill="#CCDAFF"/>
<path d="M116.862 85.4894H87.8564C83.6408 85.4894 80.2234 88.9068 80.2234 93.1224V122.128C80.2234 126.343 83.6408 129.761 87.8564 129.761H116.862C121.077 129.761 124.495 126.343 124.495 122.128V93.1224C124.495 88.9068 121.077 85.4894 116.862 85.4894Z" fill="#1751D0"/>
<path d="M98.8815 112.632H101.935L101.968 111.457C101.968 109.912 102.942 109.509 104.319 109.072C105.7 108.679 106.916 107.847 107.783 106.702C108.649 105.557 109.119 104.161 109.122 102.725C109.152 101.848 109 100.974 108.675 100.159C108.35 99.3444 107.86 98.6057 107.235 97.9901C106.61 97.3745 105.864 96.8954 105.044 96.583C104.224 96.2707 103.348 96.1319 102.472 96.1756C101.546 96.1554 100.626 96.3235 99.7665 96.6697C98.9074 97.016 98.1276 97.5331 97.4743 98.1897C96.8211 98.8464 96.3081 99.6289 95.9663 100.49C95.6246 101.351 95.4613 102.272 95.4863 103.198H98.6433C98.6313 102.687 98.7215 102.178 98.9086 101.702C99.0956 101.226 99.3758 100.793 99.7327 100.426C100.09 100.06 100.516 99.7687 100.987 99.5694C101.458 99.37 101.964 99.2667 102.475 99.2654C102.936 99.2387 103.398 99.3115 103.828 99.479C104.259 99.6465 104.648 99.9047 104.97 100.236C105.292 100.567 105.538 100.964 105.693 101.399C105.848 101.835 105.907 102.298 105.867 102.758C105.847 103.503 105.588 104.222 105.128 104.808C104.669 105.395 104.033 105.818 103.315 106.016L102.206 106.456C101.121 106.717 100.174 107.377 99.552 108.303C98.93 109.23 98.6787 110.357 98.8479 111.46L98.8815 112.632ZM100.393 119.89C100.692 119.9 100.99 119.851 101.269 119.744C101.549 119.638 101.804 119.476 102.02 119.269C102.236 119.062 102.409 118.814 102.527 118.54C102.646 118.265 102.708 117.969 102.71 117.67C102.708 117.371 102.645 117.076 102.526 116.801C102.408 116.527 102.235 116.279 102.019 116.073C101.803 115.866 101.548 115.705 101.269 115.599C100.989 115.492 100.692 115.443 100.393 115.453C100.094 115.443 99.7963 115.492 99.5169 115.599C99.2376 115.705 98.9824 115.866 98.7664 116.073C98.5504 116.279 98.378 116.527 98.2593 116.801C98.1406 117.076 98.0781 117.371 98.0754 117.67C98.0777 117.969 98.1399 118.265 98.2584 118.54C98.3769 118.814 98.5493 119.062 98.7653 119.269C98.9813 119.476 99.2367 119.638 99.5162 119.744C99.7958 119.851 100.094 119.9 100.393 119.89Z" fill="white"/>
<g filter="url(#filter2_d_289_775)">
<path d="M17.633 146.553H223.723C225.748 146.553 227.689 147.357 229.121 148.789C230.552 150.22 231.356 152.162 231.356 154.186V192.351C231.356 194.375 230.552 196.317 229.121 197.748C227.689 199.18 225.748 199.984 223.723 199.984H17.633C15.6086 199.984 13.6671 199.18 12.2356 197.748C10.8042 196.317 10 194.375 10 192.351V154.186C10 152.162 10.8042 150.22 12.2356 148.789C13.6671 147.357 15.6086 146.553 17.633 146.553V146.553Z" fill="white"/>
</g>
<path d="M115.335 158.766H75.6436C73.1143 158.766 71.0638 160.816 71.0638 163.346C71.0638 165.875 73.1143 167.926 75.6436 167.926H115.335C117.864 167.926 119.915 165.875 119.915 163.346C119.915 160.816 117.864 158.766 115.335 158.766Z" fill="#CDE1FF"/>
<path d="M142.814 178.612H75.6436C73.1143 178.612 71.0638 180.662 71.0638 183.191C71.0638 185.721 73.1143 187.771 75.6436 187.771H142.814C145.343 187.771 147.394 185.721 147.394 183.191C147.394 180.662 145.343 178.612 142.814 178.612Z" fill="#CCDAFF"/>
<path d="M51.2181 151.133H22.2128C17.9972 151.133 14.5798 154.55 14.5798 158.766V187.771C14.5798 191.987 17.9972 195.404 22.2128 195.404H51.2181C55.4337 195.404 58.8511 191.987 58.8511 187.771V158.766C58.8511 154.55 55.4337 151.133 51.2181 151.133Z" fill="#1751D0"/>
<path d="M33.2379 178.276H36.291L36.3246 177.1C36.3246 175.556 37.2986 175.153 38.6756 174.716C40.0569 174.323 41.2727 173.491 42.1391 172.346C43.0056 171.201 43.4757 169.804 43.4783 168.368C43.5085 167.492 43.3564 166.618 43.0316 165.803C42.7068 164.988 42.2163 164.249 41.5912 163.634C40.9661 163.018 40.2201 162.539 39.4002 162.227C38.5804 161.914 37.7046 161.776 36.8284 161.819C35.9024 161.799 34.9819 161.967 34.1228 162.313C33.2638 162.66 32.4839 163.177 31.8307 163.833C31.1775 164.49 30.6644 165.273 30.3227 166.133C29.981 166.994 29.8177 167.916 29.8427 168.842H32.9997C32.9877 168.33 33.0779 167.822 33.265 167.346C33.452 166.87 33.7322 166.436 34.089 166.07C34.4459 165.704 34.8723 165.412 35.3432 165.213C35.8141 165.014 36.3201 164.91 36.8315 164.909C37.2926 164.882 37.7541 164.955 38.1846 165.123C38.6151 165.29 39.0045 165.548 39.3263 165.88C39.6481 166.211 39.8948 166.608 40.0496 167.043C40.2045 167.478 40.2638 167.942 40.2236 168.402C40.2032 169.147 39.9442 169.865 39.4847 170.452C39.0252 171.038 38.3894 171.462 37.6711 171.66L36.5628 172.099C35.4777 172.361 34.5304 173.02 33.9084 173.947C33.2864 174.874 33.0351 176 33.2043 177.104L33.2379 178.276ZM34.7492 185.533C35.0482 185.544 35.3462 185.495 35.6258 185.388C35.9053 185.281 36.1606 185.12 36.3767 184.913C36.5927 184.706 36.7651 184.458 36.8836 184.183C37.0021 183.909 37.0643 183.613 37.0666 183.314C37.0639 183.015 37.0014 182.719 36.8827 182.445C36.764 182.171 36.5916 181.923 36.3756 181.716C36.1596 181.51 35.9044 181.349 35.6251 181.242C35.3457 181.136 35.0479 181.086 34.7492 181.097C34.4505 181.086 34.1527 181.136 33.8733 181.242C33.594 181.349 33.3388 181.51 33.1228 181.716C32.9068 181.923 32.7343 182.171 32.6157 182.445C32.497 182.719 32.4345 183.015 32.4318 183.314C32.4341 183.613 32.4963 183.909 32.6148 184.183C32.7333 184.458 32.9056 184.706 33.1217 184.913C33.3377 185.12 33.5931 185.281 33.8726 185.388C34.1521 185.495 34.4502 185.544 34.7492 185.533Z" fill="white"/>
<defs>
<filter id="filter0_d_289_775" x="0.840425" y="10.6862" width="239.676" height="71.7501" filterUnits="userSpaceOnUse" color-interpolation-filters="sRGB">
<feFlood flood-opacity="0" result="BackgroundImageFix"/>
<feColorMatrix in="SourceAlpha" type="matrix" values="0 0 0 0 0 0 0 0 0 0 0 0 0 0 0 0 0 0 127 0" result="hardAlpha"/>
<feOffset dy="4.57979"/>
<feGaussianBlur stdDeviation="4.57979"/>
<feColorMatrix type="matrix" values="0 0 0 0 0 0 0 0 0 0 0 0 0 0 0 0 0 0 0.161 0"/>
<feBlend mode="normal" in2="BackgroundImageFix" result="effect1_dropShadow_289_775"/>
<feBlend mode="normal" in="SourceGraphic" in2="effect1_dropShadow_289_775" result="shape"/>
</filter>
<filter id="filter1_d_289_775" x="66.484" y="76.3298" width="239.676" height="71.7501" filterUnits="userSpaceOnUse" color-interpolation-filters="sRGB">
<feFlood flood-opacity="0" result="BackgroundImageFix"/>
<feColorMatrix in="SourceAlpha" type="matrix" values="0 0 0 0 0 0 0 0 0 0 0 0 0 0 0 0 0 0 127 0" result="hardAlpha"/>
<feOffset dy="4.57979"/>
<feGaussianBlur stdDeviation="4.57979"/>
<feColorMatrix type="matrix" values="0 0 0 0 0 0 0 0 0 0 0 0 0 0 0 0 0 0 0.161 0"/>
<feBlend mode="normal" in2="BackgroundImageFix" result="effect1_dropShadow_289_775"/>
<feBlend mode="normal" in="SourceGraphic" in2="effect1_dropShadow_289_775" result="shape"/>
</filter>
<filter id="filter2_d_289_775" x="0.840425" y="141.973" width="239.676" height="71.7501" filterUnits="userSpaceOnUse" color-interpolation-filters="sRGB">
<feFlood flood-opacity="0" result="BackgroundImageFix"/>
<feColorMatrix in="SourceAlpha" type="matrix" values="0 0 0 0 0 0 0 0 0 0 0 0 0 0 0 0 0 0 127 0" result="hardAlpha"/>
<feOffset dy="4.57979"/>
<feGaussianBlur stdDeviation="4.57979"/>
<feColorMatrix type="matrix" values="0 0 0 0 0 0 0 0 0 0 0 0 0 0 0 0 0 0 0.161 0"/>
<feBlend mode="normal" in2="BackgroundImageFix" result="effect1_dropShadow_289_775"/>
<feBlend mode="normal" in="SourceGraphic" in2="effect1_dropShadow_289_775" result="shape"/>
</filter>
</defs>
</svg>
